<svg viewBox="0 0 200 200" xmlns="http://www.w3.org/2000/svg">
  <path fill="#4B5168" d="M43.7,-68.6C57.3,-67.7,69.7,-57.6,75.1,-44.6C80.4,-31.6,78.8,-15.8,77.8,-0.6C76.8,14.7,76.6,29.4,71.5,42.8C66.4,56.3,56.5,68.4,43.8,70.8C31,73.1,15.5,65.7,1.6,63C-12.4,60.3,-24.8,62.4,-37.6,60.1C-50.4,57.7,-63.6,51,-69.7,40.3C-75.8,29.6,-74.8,14.8,-72.8,1.2C-70.8,-12.4,-67.7,-24.9,-60,-32.8C-52.3,-40.8,-40,-44.4,-29.2,-47C-18.4,-49.5,-9.2,-51.2,2.9,-56.2C15,-61.2,30,-69.5,43.7,-68.6Z" transform="translate(100 100)" />
</svg>