<svg viewBox="0 0 200 200" xmlns="http://www.w3.org/2000/svg">
  <path fill="#4B5168" d="M28.6,-53.3C39.8,-43.2,53.3,-40.9,61.3,-33.3C69.2,-25.7,71.5,-12.9,71.9,0.2C72.3,13.3,70.8,26.7,64.2,36.6C57.7,46.6,46.1,53.1,34.5,62.9C23,72.7,11.5,85.8,1.3,83.6C-9,81.4,-17.9,64,-28.3,53.5C-38.7,43,-50.5,39.5,-58.9,31.7C-67.4,24,-72.6,12,-76.3,-2.1C-79.9,-16.2,-82,-32.4,-74.6,-42C-67.2,-51.7,-50.3,-54.8,-36.3,-63.3C-22.3,-71.7,-11.2,-85.5,-1.2,-83.4C8.7,-81.3,17.5,-63.4,28.6,-53.3Z" transform="translate(100 100)" />
</svg>